# xmcd CD database file
#
# Track frame offsets:
#	150
#	81863
#	110701
#	138642
#	165421
#
# Disc length: 4178 seconds
#
# Revision: 0
# Processed by: cddbd v1.5.2PL0 Copyright (c) Steve Scherf et al.
# Submitted via: CDex 1.51
#
DISCID=3d105005
DTITLE=Eddie Prevost - Entelechy
DYEAR=2006
DGENRE=Jazz
TTITLE0=Mixt
TTITLE1=Beaten
TTITLE2=Scraped
TTITLE3=Bowed
TTITLE4=Entelechy
EXTD=YEAR: 2006
EXTT0=
EXTT1=
EXTT2=
EXTT3=
EXTT4=
PLAYORDER=
